<svg width="20" height="20" viewBox="0 0 20 20" fill="none" xmlns="http://www.w3.org/2000/svg">
<g id="edit box">
<path id="Vector" d="M15.4525 11.8774V15.2909C15.4525 15.5302 15.4054 15.7671 15.3138 15.9882C15.2222 16.2092 15.088 16.4101 14.9189 16.5793C14.7497 16.7484 14.5488 16.8826 14.3278 16.9742C14.1067 17.0658 13.8698 17.1129 13.6305 17.1129H4.7092C4.46905 17.1129 4.23127 17.0654 4.00954 16.9732C3.7878 16.881 3.58648 16.7459 3.41715 16.5755C3.24784 16.4053 3.11385 16.2032 3.0229 15.9809C2.93196 15.7587 2.88585 15.5206 2.88724 15.2804V6.3696C2.88585 6.12995 2.93202 5.8924 3.0231 5.67073C3.11416 5.44905 3.24831 5.24765 3.41778 5.07819C3.58724 4.90872 3.78865 4.77457 4.01032 4.6835C4.232 4.59243 4.46955 4.54625 4.7092 4.54764H8.12275" stroke="#456C97" stroke-width="1.5" stroke-linecap="round" stroke-linejoin="round"/>
<path id="Vector_2" d="M6.02832 12.9244V11.2596C6.02948 10.9848 6.13854 10.7216 6.33199 10.5266L13.6617 3.19682C13.759 3.09867 13.8749 3.02078 14.0024 2.96761C14.13 2.91445 14.2669 2.88708 14.4052 2.88708C14.5434 2.88708 14.6803 2.91445 14.8079 2.96761C14.9354 3.02078 15.0513 3.09867 15.1486 3.19682L16.803 4.85124C16.9012 4.94858 16.9791 5.06439 17.0322 5.19199C17.0854 5.31959 17.1128 5.45645 17.1128 5.59468C17.1128 5.73292 17.0854 5.86978 17.0322 5.99738C16.9791 6.12498 16.9012 6.24078 16.803 6.33813L9.47328 13.6679C9.27828 13.8613 9.01503 13.9704 8.74036 13.9716H7.07543C6.79772 13.9716 6.53139 13.8612 6.33501 13.6648C6.13865 13.4685 6.02832 13.2021 6.02832 12.9244Z" stroke="#456C97" stroke-width="1.5" stroke-linecap="round" stroke-linejoin="round"/>
<path id="Vector_3" d="M15.4524 7.68892L12.311 4.54761" stroke="#456C97" stroke-width="1.5" stroke-linecap="round" stroke-linejoin="round"/>
</g>
</svg>
