<svg width="20" height="20" viewBox="0 0 20 20" fill="none" xmlns="http://www.w3.org/2000/svg">
<g id="trash a">
<path id="Vector" d="M5 5.41663H15V15C15 15.5525 14.7805 16.0824 14.3898 16.4731C13.9991 16.8638 13.4692 17.0833 12.9167 17.0833H7.08333C6.5308 17.0833 6.00089 16.8638 5.61019 16.4731C5.21949 16.0824 5 15.5525 5 15V5.41663Z" stroke="#456C97" stroke-width="1.5" stroke-linecap="round" stroke-linejoin="round"/>
<path id="Vector_2" d="M3.3335 5.41663H16.6668" stroke="#456C97" stroke-width="1.5" stroke-linecap="round" stroke-linejoin="round"/>
<path id="Vector_3" d="M7.5 5.41663V4.16663C7.5 3.83511 7.6317 3.51716 7.86612 3.28274C8.10053 3.04833 8.4185 2.91663 8.75 2.91663H11.25C11.5815 2.91663 11.8995 3.04833 12.1339 3.28274C12.3683 3.51716 12.5 3.83511 12.5 4.16663V5.41663" stroke="#456C97" stroke-width="1.5" stroke-linecap="round" stroke-linejoin="round"/>
<path id="Vector_4" d="M8.3335 13.8223V9.65808" stroke="#456C97" stroke-width="1.5" stroke-linecap="round" stroke-linejoin="round"/>
<path id="Vector_5" d="M11.6665 13.8223V9.65808" stroke="#456C97" stroke-width="1.5" stroke-linecap="round" stroke-linejoin="round"/>
</g>
</svg>
